<svg width="400" height="24" viewBox="0 0 400 24" fill="none" xmlns="http://www.w3.org/2000/svg">
<line y1="11.5" x2="160" y2="11.5" stroke="#212121"/>
<path d="M201.07 12.84C201.07 13.9133 200.9 14.9 200.56 15.8C200.22 16.6933 199.74 17.4633 199.12 18.11C198.5 18.7567 197.753 19.26 196.88 19.62C196.013 19.9733 195.053 20.15 194 20.15C192.947 20.15 191.987 19.9733 191.12 19.62C190.253 19.26 189.51 18.7567 188.89 18.11C188.27 17.4633 187.79 16.6933 187.45 15.8C187.11 14.9 186.94 13.9133 186.94 12.84C186.94 11.7667 187.11 10.7833 187.45 9.89C187.79 8.99 188.27 8.21667 188.89 7.57C189.51 6.91667 190.253 6.41 191.12 6.05C191.987 5.69 192.947 5.51 194 5.51C195.053 5.51 196.013 5.69 196.88 6.05C197.753 6.41 198.5 6.91667 199.12 7.57C199.74 8.21667 200.22 8.99 200.56 9.89C200.9 10.7833 201.07 11.7667 201.07 12.84ZM199.08 12.84C199.08 11.96 198.96 11.17 198.72 10.47C198.48 9.77 198.14 9.18 197.7 8.7C197.26 8.21333 196.727 7.84 196.1 7.58C195.473 7.32 194.773 7.19 194 7.19C193.233 7.19 192.537 7.32 191.91 7.58C191.283 7.84 190.747 8.21333 190.3 8.7C189.86 9.18 189.52 9.77 189.28 10.47C189.04 11.17 188.92 11.96 188.92 12.84C188.92 13.72 189.04 14.51 189.28 15.21C189.52 15.9033 189.86 16.4933 190.3 16.98C190.747 17.46 191.283 17.83 191.91 18.09C192.537 18.3433 193.233 18.47 194 18.47C194.773 18.47 195.473 18.3433 196.1 18.09C196.727 17.83 197.26 17.46 197.7 16.98C198.14 16.4933 198.48 15.9033 198.72 15.21C198.96 14.51 199.08 13.72 199.08 12.84ZM211.599 9.87V20H210.539C210.286 20 210.126 19.8767 210.059 19.63L209.919 18.54C209.479 19.0267 208.986 19.42 208.439 19.72C207.893 20.0133 207.266 20.16 206.559 20.16C206.006 20.16 205.516 20.07 205.089 19.89C204.669 19.7033 204.316 19.4433 204.029 19.11C203.743 18.7767 203.526 18.3733 203.379 17.9C203.239 17.4267 203.169 16.9033 203.169 16.33V9.87H204.949V16.33C204.949 17.0967 205.123 17.69 205.469 18.11C205.823 18.53 206.359 18.74 207.079 18.74C207.606 18.74 208.096 18.6167 208.549 18.37C209.009 18.1167 209.433 17.77 209.819 17.33V9.87H211.599Z" fill="#212121"/>
<line x1="240" y1="11.5" x2="400" y2="11.5" stroke="#212121"/>
</svg>
