<svg width="340" height="366" viewBox="0 0 340 366" fill="none" xmlns="http://www.w3.org/2000/svg">
<path d="M94.1679 74.7008C100.168 75.8308 105.588 41.0708 120.038 37.0608C134.488 33.0508 159.068 27.8108 149.868 19.4108C140.678 11.0108 104.188 7.30082 95.0479 20.6608C85.9179 34.0308 80.0879 72.0608 94.1679 74.7108V74.7008Z" fill="#352328"/>
<path d="M95.048 20.6508C104.178 7.29084 140.678 11.0108 149.868 19.4008C152.118 21.4508 152.328 23.3208 151.188 25.0208C148.538 24.9208 145.868 25.0108 143.128 25.3508C124.588 27.0308 97.748 39.9608 85.738 56.7108C85.658 44.1408 89.798 28.3308 95.048 20.6508V20.6508Z" fill="#593A42"/>
<path d="M63.2079 138.511C70.8779 145.031 83.0379 149.481 83.0379 149.481C81.7579 186.751 91.2379 231.841 102.468 271.161C49.5479 203.141 63.2079 138.521 63.2079 138.521V138.511Z" fill="#EFDCBD"/>
<path d="M27.1679 107.841C33.2979 76.7909 44.0379 46.1209 82.9179 53.4009C121.798 60.6809 118.408 99.7908 117.258 99.7908C116.108 99.7908 157.128 144.261 135.408 157.291C113.688 170.321 83.0379 149.471 83.0379 149.471C83.0379 149.471 70.8779 145.021 63.2079 138.501C63.2079 138.501 49.5479 203.121 102.468 271.141C117.398 323.381 135.418 365.441 135.418 365.441H0.337879C-3.11212 274.971 20.8479 139.851 27.1779 107.831L27.1679 107.841Z" fill="#FFF3DB"/>
<path d="M65.008 121.991C65.008 121.991 47.368 116.891 43.838 126.881C40.308 136.881 69.058 135.721 69.058 135.721C69.058 135.721 65.538 130.941 65.008 121.991V121.991Z" fill="#FEB8AC"/>
<path d="M147.608 138.021C147.608 144.481 141.028 149.711 132.908 149.711C124.788 149.711 118.208 144.481 118.208 138.021C118.208 131.561 124.788 126.331 132.908 126.331C141.028 126.331 147.608 131.571 147.608 138.021Z" fill="#593A42"/>
<path d="M87.2179 106.491C91.4379 106.491 94.7379 101.871 94.7379 95.9808C94.7379 95.2308 94.1279 94.6108 93.3679 94.6108C92.6079 94.6108 91.9979 95.2208 91.9979 95.9808C91.9979 100.201 89.8079 103.761 87.2079 103.761C84.6079 103.761 82.4179 100.201 82.4179 95.9808C82.4179 95.2308 81.8079 94.6108 81.0479 94.6108C80.2879 94.6108 79.6779 95.2208 79.6779 95.9808C79.6779 101.871 82.9779 106.491 87.1979 106.491H87.2179Z" fill="#593A42"/>
<path d="M112.058 106.491C116.278 106.491 119.578 101.871 119.578 95.9808C119.578 95.2308 118.968 94.6108 118.208 94.6108C117.448 94.6108 116.838 95.2208 116.838 95.9808C116.838 100.201 114.648 103.761 112.048 103.761C109.448 103.761 107.258 100.201 107.258 95.9808C107.258 95.2308 106.648 94.6108 105.888 94.6108C105.128 94.6108 104.518 95.2208 104.518 95.9808C104.518 101.871 107.818 106.491 112.038 106.491H112.058Z" fill="#593A42"/>
<path d="M52.1879 128.191C56.8779 127.801 61.7579 128.161 66.3579 129.231C67.2979 129.451 66.8979 130.891 65.9579 130.671C61.4879 129.621 56.7679 129.301 52.1879 129.681C51.2279 129.761 51.2379 128.271 52.1879 128.191V128.191Z" fill="#FC8686"/>
<path d="M127.858 128.341C124.748 129.141 122.308 131.441 121.178 134.421C120.398 136.511 123.738 137.411 124.518 135.341C125.208 133.491 126.898 132.161 128.778 131.681C130.938 131.121 130.018 127.781 127.858 128.341V128.341Z" fill="#936170"/>
<path d="M122.138 136.581C121.288 136.351 120.178 136.861 120.008 137.791C119.928 138.251 119.808 138.701 119.728 139.151C119.558 140.071 119.968 141.011 120.938 141.281C121.778 141.511 122.898 141.001 123.068 140.071C123.148 139.611 123.268 139.161 123.348 138.711C123.518 137.791 123.108 136.851 122.148 136.581H122.138Z" fill="#936170"/>
<path d="M56.2979 75.5408C62.1079 73.6808 53.5279 39.5408 64.3379 29.1508C75.1379 18.7508 91.0779 3.43082 78.9979 0.410821C66.9179 -2.60918 33.0479 11.4808 31.3679 27.5808C29.6879 43.6808 42.6579 79.9108 56.2979 75.5508V75.5408Z" fill="#352328"/>
<path d="M66.8179 268.081C64.3879 250.441 77.3079 237.631 92.6079 232.501C95.5279 245.681 98.9079 258.711 102.458 271.161C105.718 282.581 109.138 293.521 112.468 303.641C92.9479 304.831 69.1079 286.461 66.8079 268.091L66.8179 268.081Z" fill="#593A42"/>
<path d="M33.0979 140.761C29.9879 154.251 25.2679 166.131 16.2179 171.521C20.7379 142.101 24.9979 118.871 27.1779 107.851C28.2779 102.301 29.5179 96.7608 31.0479 91.4508C41.1379 106.421 38.4579 119.341 33.0979 140.761Z" fill="#593A42"/>
<path d="M57.6179 365.461H0.337871C-0.402129 345.931 0.127865 324.311 1.48787 302.101C8.60787 303.201 16.1379 305.581 23.8279 308.561C49.2979 318.751 63.4479 340.251 57.6279 365.471L57.6179 365.461Z" fill="#593A42"/>
<path d="M67.6979 113.991C64.4179 121.401 65.8879 128.651 69.7879 135.481C73.1779 141.411 79.0079 144.501 84.9879 147.251C85.8579 147.651 85.0979 148.941 84.2379 148.541C77.3179 145.371 71.6879 141.821 67.8379 135.081C63.9179 128.211 63.1979 120.511 66.4079 113.251C66.7979 112.371 68.0879 113.131 67.6979 114.001V113.991Z" fill="#593A42"/>
<path d="M92.6079 232.501C92.6079 232.501 92.6079 232.511 92.6079 232.521C93.3079 235.671 94.0279 238.801 94.7779 241.921C94.9179 242.501 95.0579 243.081 95.1979 243.661C95.7879 246.091 96.3879 248.511 96.9979 250.911C97.2179 251.791 97.4479 252.661 97.6679 253.531C98.2279 255.711 98.8079 257.881 99.3879 260.041C99.6079 260.881 99.8379 261.721 100.068 262.551C100.858 265.441 101.648 268.321 102.458 271.151C93.7279 259.931 86.8179 248.801 81.3479 238.031C84.7879 235.701 88.6079 233.831 92.5979 232.491L92.6079 232.501Z" fill="#352328"/>
<path d="M31.3679 27.5808C33.0479 11.4808 66.918 -2.59918 78.998 0.410821C82.468 1.28082 83.618 3.16083 83.248 5.65083C72.738 11.7308 62.8779 19.0608 55.3679 28.5208C43.0579 44.2908 46.128 60.0608 53.158 75.8308C40.738 74.4008 29.8179 42.4308 31.3679 27.5808V27.5808Z" fill="#593A42"/>
<path d="M168.64 123.021C169.21 123.451 172.33 134.271 174.2 140.921L158.66 146.051V136.591C158.66 136.591 167.82 122.401 168.64 123.021Z" fill="#FEB8AC"/>
<path d="M138.2 132.021C139.85 128.321 162.67 110.061 170.08 111.291C177.49 112.521 181.7 138.441 181.7 138.441L174.2 140.921C172.33 134.261 169.21 123.451 168.64 123.021C167.82 122.401 158.66 136.591 158.66 136.591C158.66 136.591 145.61 152.221 143.76 152.841C141.91 153.461 136.56 135.731 138.21 132.031L138.2 132.021Z" fill="#352328"/>
<path d="M213.26 103.071C212.64 101.841 199.87 99.1608 199.87 99.1608C199.87 99.1608 193.7 98.1308 193.29 97.1008C192.88 96.0708 201.1 88.9108 206.52 89.0008C218.42 94.6808 236.91 124.041 223.96 182.041L219.28 176.011C227.39 126.421 213.27 103.071 213.27 103.071H213.26Z" fill="#352328"/>
<path d="M199.88 99.1609C199.88 99.1609 212.65 101.831 213.27 103.071C213.27 103.071 227.39 126.421 219.28 176.011L191.26 139.881L199.88 99.1609Z" fill="#FEB8AC"/>
<path d="M103.69 181.871C106.62 168.401 142.93 161.961 142.93 161.961C165.77 120.381 203.25 130.921 220.82 161.961C238.39 193.001 243.66 365.181 243.66 365.181H136.14L157.94 214.951C107.14 214.131 100.76 195.341 103.69 181.871V181.871Z" fill="#593A42"/>
<path d="M196.24 365.181H136.14L157.94 214.951C157.94 214.951 165.62 215.881 175.91 215.131C175.91 215.131 190.8 326.761 196.24 365.181Z" fill="#352328"/>
<path d="M170.08 163.071C170.08 172.471 176.16 180.091 183.65 180.091C191.14 180.091 197.22 172.471 197.22 163.071C197.22 153.671 191.14 146.051 183.65 146.051C176.16 146.051 170.08 153.671 170.08 163.071Z" fill="#352328"/>
<path d="M178.1 163.071C178.1 166.021 179.71 168.421 181.7 168.421C183.69 168.421 185.3 166.031 185.3 163.071C185.3 160.111 183.69 157.721 181.7 157.721C179.71 157.721 178.1 160.111 178.1 163.071Z" fill="#191113"/>
<path d="M155.05 162.091C155.05 165.041 156.66 167.431 158.65 167.431C160.64 167.431 162.25 165.041 162.25 162.091C162.25 159.141 160.64 156.741 158.65 156.741C156.66 156.741 155.05 159.131 155.05 162.091Z" fill="#191113"/>
<path d="M102 180.091C102 186.051 108.08 190.891 115.57 190.891C123.06 190.891 129.14 186.051 129.14 180.091C129.14 174.131 123.06 169.291 115.57 169.291C108.08 169.291 102 174.121 102 180.091Z" fill="#191113"/>
<path d="M119.6 171.151C122.47 171.891 124.73 174.011 125.77 176.771C126.5 178.701 123.41 179.531 122.69 177.621C122.05 175.921 120.49 174.681 118.76 174.241C116.77 173.731 117.61 170.641 119.61 171.161L119.6 171.151Z" fill="#593A42"/>
<path d="M124.89 178.761C125.67 178.551 126.7 179.021 126.85 179.881C126.93 180.301 127.03 180.721 127.11 181.141C127.26 182.001 126.89 182.861 125.99 183.101C125.21 183.311 124.18 182.841 124.03 181.981C123.96 181.561 123.85 181.141 123.77 180.721C123.62 179.861 123.99 179.001 124.89 178.751V178.761Z" fill="#593A42"/>
<path d="M161.83 196.351C161.83 196.351 179.54 204.871 175.22 215.361C170.9 225.851 148.8 204.411 148.8 204.411C148.8 204.411 155.01 203.111 161.83 196.361V196.351Z" fill="#FEB8AC"/>
<path d="M166.53 211.601C163.19 208.041 159.15 204.861 154.82 202.571C153.91 202.091 154.72 200.711 155.63 201.191C160.05 203.531 164.24 206.831 167.66 210.471C168.36 211.221 167.24 212.351 166.53 211.601V211.601Z" fill="#FC8686"/>
<path d="M166.94 188.421C164.77 195.311 160.14 200.171 153.72 203.331C144.97 207.641 136.51 206.571 127.5 203.791C126.52 203.491 126.94 201.941 127.92 202.251C135.94 204.731 143.12 205.791 151.15 202.721C157.98 200.111 163.19 195.001 165.39 188.001C165.7 187.021 167.24 187.441 166.93 188.421H166.94Z" fill="#352328"/>
<path d="M244.083 180.93C241.603 183.61 239.253 186.33 237.163 189.2C240.003 159.64 250.493 141.01 254.263 141C258.953 141 263.563 158.51 265.933 169.18C257.033 170.38 250.733 173.88 244.093 180.93H244.083Z" fill="#FA9700"/>
<path d="M244.083 180.93C250.723 173.88 257.023 170.39 265.923 169.18C266.963 173.85 267.573 177.22 267.573 177.22L236.533 198.85C236.643 195.52 236.863 192.3 237.153 189.2C239.253 186.33 241.593 183.61 244.073 180.93H244.083Z" fill="#FF740C"/>
<path d="M330.723 191.77C330.903 194.07 331.043 196.43 331.123 198.85L300.083 177.22C300.083 177.22 300.633 174.17 301.583 169.86C307.483 171.69 313.283 175.55 317.923 178.65C322.883 182.17 327.263 186.71 330.713 191.78L330.723 191.77Z" fill="#FF740C"/>
<path d="M313.403 141C317.273 141 328.263 160.74 330.723 191.78C327.273 186.71 322.893 182.17 317.933 178.65C313.293 175.56 307.493 171.69 301.593 169.86C303.913 159.27 308.613 141 313.413 141H313.403Z" fill="#FA9700"/>
<path d="M254.263 148.99C255.743 148.72 262.703 175.62 261.013 177.75C259.323 179.88 243.883 192.11 243.083 190.26C242.283 188.4 251.343 149.52 254.273 148.99H254.263Z" fill="#FEB8AC"/>
<path d="M313.403 148.99C311.923 148.72 304.963 175.62 306.653 177.75C308.343 179.88 323.783 192.11 324.583 190.26C325.383 188.4 316.323 149.52 313.393 148.99H313.403Z" fill="#FEB8AC"/>
<path d="M242.033 364.93C242.033 364.93 221.653 262.53 230.013 218.64C238.373 174.75 271.293 170.05 283.833 170.05C296.373 170.05 329.293 174.75 337.643 218.64C346.003 262.53 325.623 364.93 325.623 364.93H242.023H242.033Z" fill="#FFF3DB"/>
<path d="M285.733 170.08C299.413 170.57 329.673 176.8 337.643 218.63C346.003 262.52 325.623 364.92 325.623 364.92H323.143C342.873 297.34 339.513 212.44 285.733 170.08V170.08Z" fill="#FFF9EE"/>
<path d="M288.243 212.35C282.753 199.32 286.463 176.41 282.743 176.41C279.023 176.41 282.743 199.32 277.243 212.35C273.003 222.43 245.803 211.04 233.683 205.36C245.483 173.78 272.683 170.04 283.823 170.04C294.963 170.04 321.663 173.69 333.643 204.48C322.723 209.73 292.713 222.97 288.243 212.35V212.35Z" fill="#FA9700"/>
<path d="M228.123 253.4C231.443 265.28 236.683 276.72 243.073 287.74C255.853 309.85 271.033 330.35 277.433 355.39C278.123 357.98 279.063 361.32 279.843 364.93H242.033C242.033 364.93 229.473 301.78 228.123 253.4Z" fill="#FA9700"/>
<path d="M324.593 287.74C330.983 276.72 336.223 265.27 339.543 253.4C338.193 301.77 325.633 364.93 325.633 364.93H287.823C288.613 361.32 289.543 357.98 290.233 355.39C296.623 330.36 311.803 309.85 324.593 287.74V287.74Z" fill="#FA9700"/>
<path d="M285.733 170.08C297.693 170.51 322.313 175.34 333.643 204.49C330.033 206.23 324.333 208.83 318.163 211.16C310.503 195.25 299.853 181.2 285.723 170.08H285.733Z" fill="#FF9E10"/>
<path d="M325.633 364.93H323.153C331.863 335.08 336.073 301.86 333.423 270.42C335.853 264.85 337.933 259.18 339.543 253.41C338.193 301.78 325.633 364.94 325.633 364.94V364.93Z" fill="#FF9E10"/>
<path d="M293.773 203.64C294.383 203.64 294.873 203.15 294.873 202.54C294.873 199.14 296.643 196.27 298.733 196.27C300.823 196.27 302.593 199.14 302.593 202.54C302.593 203.15 303.083 203.64 303.693 203.64C304.303 203.64 304.793 203.15 304.793 202.54C304.793 197.79 302.133 194.07 298.733 194.07C295.333 194.07 292.673 197.79 292.673 202.54C292.673 203.15 293.163 203.64 293.773 203.64V203.64Z" fill="#593A42"/>
<path d="M264.163 203.64C264.773 203.64 265.263 203.15 265.263 202.54C265.263 199.14 267.033 196.27 269.123 196.27C271.213 196.27 272.983 199.14 272.983 202.54C272.983 203.15 273.473 203.64 274.083 203.64C274.693 203.64 275.183 203.15 275.183 202.54C275.183 197.79 272.523 194.07 269.123 194.07C265.723 194.07 263.063 197.79 263.063 202.54C263.063 203.15 263.553 203.64 264.163 203.64V203.64Z" fill="#593A42"/>
<path d="M303.693 225.74C298.823 234.35 290.743 238.51 280.923 238.03C271.343 237.57 261.583 231.03 260.243 221.03C260.113 220.02 261.643 219.59 261.783 220.61C263.133 230.67 272.733 236.04 282.083 236.49C290.853 236.91 298.073 232.45 302.323 224.93C302.833 224.03 304.213 224.84 303.703 225.74H303.693Z" fill="#593A42"/>
<path d="M282.213 237.11C282.193 232.93 282.673 228.73 281.973 224.57C281.803 223.56 283.343 223.13 283.513 224.15C284.243 228.46 283.783 232.77 283.813 237.11C283.813 238.14 282.223 238.14 282.213 237.11V237.11Z" fill="#593A42"/>
<path d="M269.283 217.54C269.283 223.5 275.363 228.34 282.853 228.34C290.343 228.34 296.423 223.51 296.423 217.54C296.423 211.57 290.343 206.74 282.853 206.74C275.363 206.74 269.283 211.57 269.283 217.54Z" fill="#593A42"/>
<path d="M287.513 208.61C290.383 209.35 292.643 211.47 293.683 214.23C294.413 216.16 291.323 216.99 290.603 215.08C289.963 213.38 288.403 212.14 286.673 211.7C284.673 211.19 285.523 208.1 287.523 208.62L287.513 208.61Z" fill="#936170"/>
<path d="M292.803 216.21C293.583 216 294.613 216.47 294.763 217.33C294.843 217.75 294.953 218.17 295.023 218.59C295.173 219.45 294.803 220.31 293.903 220.56C293.123 220.78 292.093 220.3 291.943 219.44C291.873 219.02 291.763 218.61 291.683 218.18C291.523 217.33 291.903 216.46 292.803 216.22V216.21Z" fill="#936170"/>
</svg>
